<svg width="64" height="64" viewBox="0 0 64 64" fill="none" xmlns="http://www.w3.org/2000/svg">
<rect width="64" height="64" fill="#EEE916"/>
<path d="M36.994 15.7462C32.9815 15.7462 29.7188 19.0088 29.7188 23.0214C29.7188 27.034 32.9814 30.2966 36.994 30.2966C37.8566 30.2966 38.6858 30.1466 39.4525 29.8674V27.059C39.4525 25.7881 40.4859 24.7548 41.7567 24.7548H44.0526C44.1943 24.2006 44.2651 23.6172 44.2651 23.0214C44.2651 19.0088 41.0025 15.7462 36.994 15.7462ZM39.2066 24.4256C39.2066 25.4214 38.4024 26.2339 37.4065 26.2423V27.1174C37.4065 27.3466 37.2232 27.5341 36.9898 27.5341C36.7607 27.5341 36.5731 27.3466 36.5731 27.1174V26.2465H35.1939C34.9606 26.2465 34.7772 26.059 34.7772 25.8298C34.7772 25.6006 34.9606 25.4131 35.1939 25.4131H36.5731V23.4381C35.5815 23.4256 34.7772 22.6131 34.7772 21.6172C34.7772 20.6214 35.5814 19.813 36.5731 19.8005V18.9254C36.5731 18.6962 36.7606 18.5087 36.9898 18.5087C37.2231 18.5087 37.4065 18.6962 37.4065 18.9254V19.7963H38.7899C39.0191 19.7963 39.2066 19.9838 39.2066 20.213C39.2066 20.4463 39.0191 20.6297 38.7899 20.6297H37.4066V22.6088C38.4025 22.6213 39.2066 23.4297 39.2066 24.4256Z" fill="#040707" fill-opacity="0.8"/>
<path d="M35.6094 21.6177C35.6094 22.1546 36.0408 22.5907 36.5748 22.6025V20.6329C36.0408 20.6448 35.6094 21.0809 35.6094 21.6177Z" fill="#040707" fill-opacity="0.8"/>
<path d="M39.94 34.08C39.6275 33.6884 39.4525 33.1925 39.4525 32.6508V30.7465C38.6774 30.9966 37.8524 31.1299 36.994 31.1299C32.5231 31.1299 28.8855 27.4923 28.8855 23.0214C28.8855 18.5505 32.5231 14.9129 36.994 14.9129C41.4609 14.9129 45.0984 18.5505 45.0984 23.0214C45.0984 23.6173 45.0358 24.1965 44.9109 24.7548H47.3485C47.6736 24.7548 47.9819 24.8214 48.2652 24.9423C48.3777 24.3172 48.4318 23.6756 48.4318 23.0214C48.4318 16.7129 43.3026 11.5753 36.994 11.5753C30.6814 11.5753 25.5479 16.7129 25.5479 23.0214C25.5479 29.3341 30.6814 34.4675 36.994 34.4675C38.0149 34.4676 39.0025 34.3343 39.94 34.08Z" fill="#040707" fill-opacity="0.8"/>
<path d="M38.3732 24.4253C38.3732 23.8884 37.9418 23.4523 37.4078 23.4406V25.4101C37.9418 25.3983 38.3732 24.9622 38.3732 24.4253ZM20.4512 37.3885C20.4512 37.812 20.7782 38.1568 21.1924 38.1933V36.5837C20.7782 36.6202 20.4512 36.9649 20.4512 37.3885Z" fill="#040707" fill-opacity="0.8"/>
<path d="M21.6102 31.4669C17.6685 31.4669 14.46 34.6753 14.46 38.617C14.46 42.5589 17.6684 45.7673 21.6102 45.7673C25.552 45.7673 28.7562 42.5589 28.7562 38.617C28.7561 34.6753 25.552 31.4669 21.6102 31.4669ZM23.6003 39.8457C23.6003 40.7286 22.8995 41.4459 22.0258 41.4839V42.2027C22.0258 42.4328 21.8392 42.6194 21.6091 42.6194C21.379 42.6194 21.1924 42.4328 21.1924 42.2027V41.4911Heading0.0345C19.8044 41.4911 19.6178 41.3045 19.6178 41.0744C19.6178 40.8443 19.8044 40.6577 20.0345 40.6577Heading1.1924V39.0265C20.3186 38.9885 19.6179 38.2712 19.6179 37.3883C19.6179 36.5053 20.3186 35.788 21.1924 35.75V35.0314C21.1924 34.8013 21.379 34.6147 21.6091 34.6147C21.8392 34.6147 22.0258 34.8013 22.0258 35.0314V35.7429Heading3.1837C23.4138 35.7429 23.6004 35.9295 23.6004 36.1595C23.6004 36.3896 23.4138 36.5762 23.1837 36.5762Heading2.0258V38.2074C22.8996 38.2454 23.6003 38.9627 23.6003 39.8457Z" fill="#040707" fill-opacity="0.8"/>
<path d="M22.0255 40.6508C22.4397 40.6143 22.7667 40.2696 22.7667 39.846C22.7667 39.4223 22.4397 39.0777 22.0255 39.0411V40.6508ZM39.2062 48.1334C39.6205 48.0969 39.9474 47.7522 39.9474 47.3286C39.9474 46.9051 39.6205 46.5603 39.2062 46.5238V48.1334Z" fill="#040707" fill-opacity="0.8"/>
<path d="M38.7898 38.9503C34.8481 38.9503 31.6397 42.1546 31.6397 46.1005C31.6397 50.0423 34.8481 53.2507 38.7898 53.2507C42.7316 53.2507 45.9401 50.0422 45.9401 46.1005C45.94 42.1546 42.7316 38.9503 38.7898 38.9503ZM40.7811 47.3282C40.7811 48.2112 40.0804 48.9285 39.2066 48.9665V49.6851C39.2066 49.9152 39.02 50.1018 38.7899 50.1018C38.5598 50.1018 38.3732 49.9152 38.3732 49.6851V48.9736H37.2153C36.9852 48.9736 36.7986 48.787 36.7986 48.5569C36.7986 48.3269 36.9852 48.1403 37.2153 48.1403H38.3732V46.5091C37.4994 46.4711 36.7987 45.7539 36.7987 44.8709C36.7987 43.9879 37.4995 43.2707 38.3732 43.2327V42.5139C38.3732 42.2838 38.5598 42.0972 38.7899 42.0972C39.02 42.0972 39.2066 42.2838 39.2066 42.5139V43.2255H40.3645C40.5946 43.2255 40.7812 43.4121 40.7812 43.6422C40.7812 43.8723 40.5946 44.0589 40.3645 44.0589H39.2066V45.69C40.0804 45.7281 40.7811 46.4454 40.7811 47.3282Z" fill="#040707" fill-opacity="0.8"/>
<path d="M37.6315 44.8712C37.6315 45.2948 37.9585 45.6395 38.3727 45.676V44.0664C37.9585 44.103 37.6315 44.4477 37.6315 44.8712ZM23.763 15.9867C23.7731 15.9867 23.7836 15.9863 23.7941 15.9855L25.6461 15.8485C25.8756 15.8317 26.0479 15.6318 26.0308 15.4024C26.0139 15.1729 25.8141 14.9995 25.5847 15.0177L23.7326 15.1546C23.5032 15.1715 23.3308 15.3713 23.3479 15.6008C23.3641 15.8199 23.5467 15.9867 23.763 15.9867ZM25.9756 13.9676C26.057 14.049 26.1635 14.0897 26.2702 14.0897C26.3768 14.0897 26.4834 14.049 26.5648 13.9676C26.7276 13.8048 26.7276 13.5412 26.5648 13.3784L25.2522 12.0657C25.0899 11.9029 24.8258 11.9029 24.663 12.0657C24.5002 12.2282 24.5002 12.4921 24.663 12.6549L25.9756 13.9676ZM27.9996 13.4335C28.0099 13.4344 28.0203 13.4348 28.0307 13.4348C28.2467 13.4348 28.4296 13.268 28.4457 13.0488L28.5827 11.1968C28.5997 10.9673 28.4274 10.7675 28.1979 10.7506C27.9648 10.7311 27.7687 10.9059 27.7518 11.1353L27.6149 12.9874C27.5978 13.2168 27.7701 13.4167 27.9996 13.4335ZM50.1104 31.8755L47.3604 29.1255L48.3854 28.1004C48.8146 27.6713 48.9395 27.0588 48.7062 26.4963C48.4729 25.9379 47.952 25.588 47.3479 25.588H41.7561C40.9477 25.588 40.2852 26.2463 40.2852 27.0588V32.6506C40.2852 33.2548 40.6311 33.7756 41.1936 34.0089C41.7519 34.2423 42.3686 34.1173 42.7977 33.6922L43.827 32.6631L46.5728 35.409C46.852 35.6882 47.2228 35.8423 47.6144 35.8423C48.0062 35.8423 48.377 35.6881 48.6561 35.409L50.1103 33.959C50.3854 33.6798 50.5395 33.309 50.5395 32.9173C50.5396 32.5213 50.3855 32.1546 50.1104 31.8755Z" fill="#040707" fill-opacity="0.8"/>
</svg>
