<svg width="64" height="64" viewBox="0 0 64 64" fill="none" xmlns="http://www.w3.org/2000/svg">
<rect width="64" height="64" fill="#A3CCC4"/>
<path d="M45.5127 35.0129L42.2002 30.4629C41.0453 32.0932 39.5164 33.4229 37.7417 34.3406C35.967 35.2583 33.9981 35.7372 32.0002 35.7372C30.0023 35.7372 28.0334 35.2583 26.2587 34.3406C24.484 33.4229 22.9551 32.0932 21.8002 30.4629L18.4877 35.0129C18.3624 35.194 18.2872 35.4049 18.2696 35.6244C18.252 35.8439 18.2928 36.0642 18.3877 36.2629C18.4845 36.4784 18.6404 36.662 18.8373 36.7926C19.0342 36.9231 19.264 36.9951 19.5002 37.0004Heading4.5002V48.2504C24.5002 48.9134 24.7636 49.5493 25.2324 50.0182C25.7013 50.487 26.3372 50.7504 27.0002 50.7504H37.0002C37.6632 50.7504 38.2991 50.487 38.768 50.0182C39.2368 49.5493 39.5002 48.9134 39.5002 48.2504V37.0004H44.5002C44.731 36.9997 44.9572 36.9351 45.1535 36.8137C45.3499 36.6924 45.5088 36.519 45.6127 36.3129C45.7173 36.108 45.7633 35.8782 45.7456 35.6488C45.728 35.4194 45.6474 35.1994 45.5127 35.0129Z" fill="white"/>
<path d="M32 33.25C33.9778 33.25 35.9112 32.6635 37.5557 31.5647C39.2002 30.4659 40.4819 28.9041 41.2388 27.0768C41.9957 25.2496 42.1937 23.2389 41.8079 21.2991C41.422 19.3593 40.4696 17.5775 39.0711 16.1789C37.6725 14.7804 35.8907 13.828 33.9509 13.4422C32.0111 13.0563 30.0004 13.2543 28.1732 14.0112C26.3459 14.7681 24.7841 16.0498 23.6853 17.6943C22.5865 19.3388 22 21.2722 22 23.25C22 25.9022 23.0536 28.4457 24.9289 30.3211C26.8043 32.1964 29.3478 33.25 32 33.25ZM32 18.25C32.9889 18.25 33.9556 18.5432 34.7779 19.0927C35.6001 19.6421 36.241 20.423 36.6194 21.3366C36.9978 22.2502 37.0969 23.2556 36.9039 24.2255C36.711 25.1954 36.2348 26.0863 35.5355 26.7855C34.8363 27.4848 33.9454 27.961 32.9755 28.1539C32.0055 28.3469 31.0002 28.2478 30.0866 27.8694C29.173 27.491 28.3921 26.8501 27.8427 26.0279C27.2932 25.2056 27 24.2389 27 23.25C27 21.9239 27.5268 20.6522 28.4645 19.7145C29.4021 18.7768 30.6739 18.25 32 18.25Z" fill="white"/>
<path d="M32 25.75C33.3807 25.75 34.5 24.6307 34.5 23.25C34.5 21.8693 33.3807 20.75 32 20.75C30.6193 20.75 29.5 21.8693 29.5 23.25C29.5 24.6307 30.6193 25.75 32 25.75Z" fill="white"/>
</svg>
