<svg width="20" height="21" viewBox="0 0 20 21" fill="none" xmlns="http://www.w3.org/2000/svg">
<rect y="0.5" width="20" height="20" rx="10" fill="#DEDEDE"/>
<path d="M14.7965 6.71702C14.861 6.7858 14.9122 6.86747 14.9471 6.95735C14.982 7.04723 15 7.14356 15 7.24085C15 7.33814 14.982 7.43448 14.9471 7.52436C14.9122 7.61424 14.861 7.6959 14.7965 7.76469L8.68557 14.283C8.62108 14.3518 8.54452 14.4064 8.46025 14.4436C8.37599 14.4808 8.28567 14.5 8.19447 14.5C8.10326 14.5 8.01294 14.4808 7.92868 14.4436C7.84441 14.4064 7.76785 14.3518 7.70336 14.283L5.20342 11.6164C5.07317 11.4775 5 11.289 5 11.0926C5 10.8961 5.07317 10.7077 5.20342 10.5687C5.33367 10.4298 5.51032 10.3518 5.69452 10.3518C5.87872 10.3518 6.05537 10.4298 6.18562 10.5687L8.19447 12.7115L13.8143 6.71702C13.8788 6.64822 13.9554 6.59364 14.0397 6.5564C14.1239 6.51917 14.2142 6.5 14.3054 6.5C14.3967 6.5 14.487 6.51917 14.5712 6.5564C14.6555 6.59364 14.7321 6.64822 14.7965 6.71702Z" fill="black"/>
</svg>
