<svg width="50" height="50" viewBox="0 0 50 50" fill="none" xmlns="http://www.w3.org/2000/svg">
<g clip-path="url(#clip0_0_1219)">
<path d="M11.125 1.9582e-05C9.66329 -0.00272545 8.21541 0.283158 6.86442 0.841269C5.51343 1.39938 4.28593 2.21874 3.25234 3.25234C2.21874 4.28593 1.39938 5.51343 0.841269 6.86442C0.283158 8.21541 -0.00272545 9.66329 1.9582e-05 11.125V38.875C-0.00272545 40.3367 0.283158 41.7846 0.841269 43.1356C1.39938 44.4866 2.21874 45.7141 3.25234 46.7477C4.28593 47.7813 5.51343 48.6007 6.86442 49.1588C8.21541 49.7169 9.66329 50.0028 11.125 50H38.875C40.3367 50.0028 41.7846 49.7169 43.1356 49.1588C44.4866 48.6007 45.7141 47.7813 46.7477 46.7477C47.7813 45.7141 48.6007 44.4866 49.1588 43.1356C49.7169 41.7846 50.0028 40.3367 50 38.875V11.125C50.0028 9.66329 49.7169 8.21541 49.1588 6.86442C48.6007 5.51343 47.7813 4.28593 46.7477 3.25234C45.7141 2.21874 44.4866 1.39938 43.1356 0.841269C41.7846 0.283158 40.3367 -0.00272545 38.875 1.9582e-05H11.125ZM24.7188 5.35002C29.5854 5.35002 33.9854 7.22919 37.3354 10.7396C39.8854 13.3896 41.3188 16.1959 42.0521 19.8896C42.3021 21.1188 42.3021 24.4729 42.0667 25.8563C41.2884 30.2536 38.8774 34.1945 35.3167 36.8896C34.05 37.8479 30.95 39.5167 30.45 39.5167C30.2667 39.5167 30.25 39.3271 30.3334 38.5583C30.4834 37.325 30.6334 37.0688 31.3334 36.775C32.45 36.3084 34.35 34.9542 35.5167 33.7854C37.551 31.7529 38.9967 29.2071 39.7 26.4188C40.1334 24.7021 40.0834 20.8854 39.6 19.1188C38.0834 13.5021 33.5 9.13544 27.8834 7.96877C26.25 7.63544 23.2834 7.63544 21.6334 7.96877C15.95 9.13544 11.25 13.7188 9.81669 19.4854C9.43335 21.0521 9.43335 24.8688 9.81669 26.4354C10.7667 30.2521 13.2334 33.7521 16.4667 35.8354C17.1 36.2521 17.8667 36.6854 18.1834 36.8188C18.8834 37.1188 19.0334 37.3688 19.1667 38.6021C19.25 39.3521 19.2292 39.5688 19.05 39.5688C18.9334 39.5688 18.0834 39.2021 17.1834 38.7688L17.1 38.7063C11.95 36.1729 8.65002 31.8854 7.45002 26.1813C7.15002 24.7104 7.10002 21.1979 7.38752 19.8479C8.13752 16.2229 9.57085 13.3896 11.9542 10.8813C15.3875 7.26252 19.8042 5.34794 24.7209 5.34794L24.7188 5.35002ZM24.9979 11.2042C25.85 11.2125 26.6709 11.2875 27.3021 11.425C33.1021 12.7167 37.2188 18.525 36.4188 24.2875C36.1021 26.6084 35.3021 28.5167 33.8854 30.2875C33.1854 31.1834 31.4854 32.6833 31.1854 32.6833C31.1375 32.6833 31.0854 32.1167 31.0854 31.4271V30.1667L31.9521 29.1334C35.2188 25.2209 34.9854 19.7542 31.4188 16.1667C30.0354 14.7709 28.4354 13.95 26.3688 13.5709C25.0354 13.325 24.7521 13.325 23.3521 13.5542C21.2271 13.9021 19.5813 14.725 18.1188 16.1709C14.5354 19.7209 14.3021 25.2167 17.5688 29.1334L18.4292 30.1667V31.4334C18.4292 32.1334 18.3729 32.7 18.3042 32.7C18.2417 32.7 17.7542 32.3667 17.2375 31.95L17.1667 31.9271C15.4334 30.5438 13.9 28.0896 13.2667 25.6834C12.8834 24.2292 12.8834 21.4667 13.2834 20.0167C14.3334 16.1042 17.2167 13.0688 21.2167 11.6438C22.0709 11.3417 23.5792 11.1854 24.9979 11.2042ZM24.7271 17.4334C25.3729 17.4334 26.0188 17.5584 26.4854 17.8042C27.5216 18.363 28.299 19.304 28.6521 20.4271C29.6188 23.7146 26.1354 26.5938 22.9854 25.1229Heading2.9542C21.4709 24.4334 20.6709 23.1313 20.6542 21.4354C20.6542 19.9084 21.5042 18.5792 22.9709 17.8C23.4375 17.5563 24.0813 17.4334 24.7271 17.4334ZM24.7042 27.2834C26.7625 27.275 28.2584 28.0104 28.8084 29.3042C29.2209 30.2709 29.0667 33.3292 28.3542 38.2667C27.8709 41.7167 27.6042 42.5875 26.9375 43.175C26.0209 43.9875 24.7209 44.2125 23.4875 43.775Heading3.4813C21.9896 43.2396 21.6688 42.5146 21.0563 38.2667C20.3459 33.3292 20.1896 30.2709 20.6021 29.3042C21.1479 28.0209 22.6313 27.2917 24.7063 27.2834Heading4.7042Z" fill="url(#paint0_linear_0_1219)"/>
</g>
<defs>
<linearGradient id="paint0_linear_0_1219" x1="25" y1="0" x2="25" y2="50" gradientUnits="userSpaceOnUse">
<stop stop-color="#D26CFB"/>
<stop offset="1" stop-color="#7D4095"/>
</linearGradient>
<clipPath id="clip0_0_1219">
<rect width="50" height="50" fill="white"/>
</clipPath>
</defs>
</svg>
