<svg width="50" height="50" viewBox="0 0 50 50" fill="none" xmlns="http://www.w3.org/2000/svg">
<path d="M30.9271 19.5996C28.0312 21.7246 23.8333 22.8559 20.2146 22.8559C15.3905 22.8811 10.7294 21.1116 7.1375 17.8913C6.86458 17.6475 7.10833 17.3142 7.43333 17.5059C11.4244 19.7736 15.9368 20.964 20.5271 20.96C23.9557 20.9452 27.3477 20.2535 30.5083 18.9246C31 18.7204 31.4104 19.2454 30.9312 19.5996H30.9271ZM32.1333 18.2329C31.7604 17.7621 29.6854 18.0059 28.7521 18.1184C28.4667 18.1517 28.4229 17.9038 28.6792 17.7288C30.3375 16.5704 33.0521 16.9038 33.3667 17.2913C33.6896 17.6809 33.2833 20.3913 31.7312 21.6871C31.4917 21.8871 31.2646 21.7788 31.3729 21.5142C31.7229 20.6475 32.5042 18.7017 32.1333 18.2329ZM28.8167 9.54544V8.42044C28.8167 8.24961 28.9458 8.13503 29.1021 8.13503H34.175C34.3375 8.13503 34.4667 8.24961 34.4667 8.41628V9.38294C34.4667 9.54544 34.3292 9.75794 34.0812 10.0913L31.4583 13.8225C32.4333 13.8017 33.4688 13.9475 34.3542 14.4413C34.435 14.4834 34.5027 14.5468 34.5501 14.6247C34.5974 14.7025 34.6226 14.7918 34.6229 14.8829V16.0788C34.6229 16.2496 34.4375 16.4371 34.25 16.335C33.4198 15.9121 32.501 15.6926 31.5693 15.6948C30.6376 15.697 29.7198 15.9207 28.8917 16.3475C28.7125 16.4413 28.5292 16.2538 28.5292 16.0871V14.9454C28.5292 14.7621 28.5333 14.4496 28.7167 14.1746L31.7625 9.82253H29.1146C28.9521 9.82253 28.8188 9.71211 28.8146 9.54128L28.8167 9.54544ZM38.8333 7.98919C41.125 7.98919 42.3625 9.94753 42.3625 12.4329C42.3625 14.835 40.9958 16.7413 38.8333 16.7413C36.5854 16.7413 35.3646 14.7829 35.3646 12.3475C35.3646 9.89544 36.6021 7.98919 38.8333 7.98919ZM38.8458 9.59544C37.7104 9.59544 37.6375 11.135 37.6375 12.0996C37.6375 13.0642 37.625 15.1184 38.8333 15.1184C40.0292 15.1184 40.0854 13.46 40.0854 12.4475C40.0854 11.785 40.0562 10.9892 39.8563 10.3621C39.6833 9.81419 39.3375 9.59544 38.8458 9.59544ZM26.3292 16.5579C26.2271 16.6413 26.0375 16.6517 25.9667 16.5913C25.6148 16.303 25.3153 15.9563 25.0812 15.5663C24.2354 16.4246 23.6333 16.685 22.5354 16.685C21.2396 16.685 20.2271 15.8871 20.2271 14.2934C20.2093 13.7566 20.3579 13.2274 20.6525 12.7784C20.9471 12.3293 21.3734 11.9824 21.8729 11.785C22.7104 11.4163 23.8813 11.3517 24.775 11.2496C24.775 11.2496 24.8479 10.2892 24.5875 9.93711C24.4825 9.80916 24.3497 9.70695 24.1991 9.63834C24.0485 9.56972 23.8842 9.53652 23.7188 9.54128C23.15 9.54128 22.5937 9.84753 22.4833 10.4434C22.4542 10.6142 22.3292 10.7579 22.1917 10.7413L20.7187 10.5829C20.6822 10.578 20.647 10.5656 20.6154 10.5465C20.5837 10.5274 20.5564 10.5021 20.5349 10.472C20.5134 10.442 20.4983 10.4078 20.4906 10.3717C20.4828 10.3356 20.4824 10.2983 20.4896 10.2621C20.8292 8.46003 22.4667 7.91211 23.9375 7.91211C24.6875 7.91211 25.6667 8.11419 26.2604 8.67669C27.0104 9.37461 26.9417 10.3017 26.9417 11.3184V13.7121C26.9417 14.4288 27.2396 14.7454 27.5229 15.1288C27.6208 15.2704 27.6417 15.4371 27.5187 15.5413C27.2021 15.8017 26.3312 16.5579 26.3312 16.5579H26.3292ZM24.775 12.8142V12.4809C23.6583 12.4809 22.4792 12.7204 22.4792 14.0288C22.4792 14.6913 22.825 15.1392 23.4187 15.1392C23.8479 15.1392 24.2396 14.8746 24.4875 14.4413C24.7875 13.9079 24.775 13.4121 24.775 12.8142ZM6.1 16.5579C6.00208 16.6434 5.8125 16.6517 5.73958 16.5913C5.21042 16.185 4.85625 15.5663 4.85625 15.5663C4.00625 16.4246 3.40625 16.685 2.30833 16.685C1.01042 16.685 0.00208333 15.8871 0.00208333 14.2934C-0.0157244 13.7566 0.132869 13.2274 0.427506 12.7784C0.722144 12.3293 1.14841 11.9824 1.64792 11.785C2.48333 11.4163 3.65417 11.3538 4.54792 11.2496C4.54792 11.2496 4.62083 10.2892 4.36042 9.93711C4.25546 9.80916 4.12259 9.70695 3.972 9.63834C3.8214 9.56972 3.65709 9.53652 3.49167 9.54128C2.92083 9.54128 2.36875 9.84961 2.25833 10.4434C2.22708 10.6142 2.1 10.7579 1.96667 10.7413L0.4875 10.5829C0.451281 10.5775 0.416553 10.5647 0.385415 10.5454C0.354278 10.5261 0.327379 10.5007 0.306345 10.4707C0.285312 10.4407 0.270582 10.4067 0.263045 10.3709C0.255509 10.335 0.255323 10.298 0.2625 10.2621C0.6 8.46003 2.24167 7.91211 3.71042 7.91211C4.4625 7.91211 5.43958 8.11419 6.03542 8.67669C6.78333 9.37461 6.71042 10.3017 6.71042 11.3184V13.7121C6.71042 14.4288 7.01042 14.7454 7.29167 15.1288C7.38958 15.2704 7.41042 15.4371 7.2875 15.5413C6.97083 15.8017 6.1 16.5579 6.1 16.5579ZM4.54792 12.8142V12.4809C3.43333 12.4809 2.25417 12.7204 2.25417 14.0288C2.25417 14.6913 2.59583 15.1392 3.19167 15.1392C3.62083 15.1392 4.01458 14.8746 4.2625 14.4434C4.56042 13.9079 4.54792 13.4121 4.54792 12.8142ZM10.6167 12.1184V16.2892C10.615 16.3655 10.5836 16.438 10.5291 16.4914C10.4745 16.5448 10.4013 16.5746 10.325 16.5746H8.7875C8.7495 16.5754 8.71171 16.5687 8.67635 16.5547C8.641 16.5407 8.6088 16.5198 8.58163 16.4933C8.55446 16.4667 8.53287 16.4349 8.51814 16.3999C8.50341 16.3648 8.49582 16.3272 8.49583 16.2892V8.44336C8.49693 8.36673 8.52814 8.29361 8.58272 8.23981C8.6373 8.18601 8.71086 8.15585 8.7875 8.15586H10.2271C10.2649 8.15558 10.3024 8.16283 10.3374 8.17718C10.3724 8.19153 10.4042 8.2127 10.431 8.23945C10.4577 8.2662 10.4789 8.298 10.4933 8.33301C10.5076 8.36802 10.5149 8.40553 10.5146 8.44336V9.44753H10.5437C10.9187 8.45586 11.625 7.98919 12.5729 7.98919C13.5396 7.98919 14.1417 8.45586 14.5771 9.44753C14.7315 9.01009 15.021 8.63307 15.4037 8.37093C15.7864 8.10879 16.2426 7.97511 16.7062 7.98919C17.3562 7.98919 18.0604 8.25378 18.4917 8.85378C18.9833 9.51628 18.8812 10.4767 18.8812 11.3225V16.2934C18.8812 16.4517 18.7479 16.5746 18.5812 16.5746H17.0437C16.9702 16.5725 16.9004 16.542 16.8487 16.4896C16.7971 16.4372 16.7677 16.3669 16.7667 16.2934V12.1184C16.7667 11.785 16.7958 10.9559 16.725 10.6434C16.6083 10.11 16.2625 9.96003 15.8125 9.96003C15.6129 9.96681 15.4196 10.032 15.2567 10.1475C15.0937 10.2631 14.9683 10.4239 14.8958 10.61C14.7354 11.0059 14.75 11.6684 14.75 12.1184V16.2913C14.75 16.4496 14.6167 16.5725 14.45 16.5725H12.9104C12.8369 16.5704 12.767 16.5399 12.7154 16.4875C12.6638 16.4351 12.6344 16.3648 12.6333 16.2913V12.1184C12.6333 11.2371 12.775 9.94753 11.6812 9.94753C10.5687 9.94753 10.6125 11.2038 10.6125 12.1184H10.6167ZM45.6333 16.2892C45.6333 16.3268 45.6259 16.3641 45.6114 16.3989C45.5969 16.4337 45.5757 16.4652 45.549 16.4918C45.5223 16.5183 45.4906 16.5393 45.4557 16.5535C45.4208 16.5677 45.3835 16.5749 45.3458 16.5746H43.8042C43.7665 16.5749 43.7292 16.5677 43.6943 16.5535C43.6594 16.5393 43.6277 16.5183 43.601 16.4918C43.5743 16.4652 43.5531 16.4337 43.5386 16.3989C43.5241 16.3641 43.5167 16.3268 43.5167 16.2892V8.44336C43.5164 8.40553 43.5236 8.36802 43.538 8.33301C43.5523 8.298 43.5735 8.2662 43.6003 8.23945C43.627 8.2127 43.6588 8.19153 43.6938 8.17718C43.7288 8.16283 43.7663 8.15558 43.8042 8.15586H45.2271C45.3979 8.15586 45.5187 8.28919 45.5187 8.37878V9.57878H45.5479C45.975 8.50169 46.5812 7.98919 47.65 7.98919C48.3417 7.98919 49.0167 8.23919 49.4479 8.91628C49.85 9.54961 49.85 10.61 49.85 11.3704V16.3267C49.8394 16.3966 49.8038 16.4603 49.7497 16.5059C49.6957 16.5515 49.6269 16.5759 49.5562 16.5746H48.0083C47.9412 16.571 47.8775 16.5444 47.8277 16.4992C47.778 16.4541 47.7454 16.3931 47.7354 16.3267V11.5663C47.7354 9.97669 47.125 9.92878 46.7687 9.92878C46.3583 9.92878 46.025 10.2496 45.8854 10.5454C45.6917 11.0223 45.6043 11.5356 45.6292 12.0496L45.6333 16.2892ZM0.395833 41.7892C0.131944 41.792 0 41.6586 0 41.3892V32.1204C0 31.8566 0.131944 31.7246 0.395833 31.7246H1.28125C1.41181 31.7246 1.51458 31.7517 1.58958 31.8059C1.66319 31.8572 1.71319 31.9566 1.73958 32.1038L1.85833 32.7371C3.13611 31.8649 4.37917 31.4288 5.5875 31.4288C6.82778 31.4288 7.66736 31.8989 8.10625 32.8392C9.42153 31.8989 10.7375 31.4288 12.0542 31.4288C12.9736 31.4288 13.6792 31.6857 14.1708 32.1996C14.6625 32.7204 14.9083 33.4552 14.9083 34.4038V41.3913C14.9083 41.6552 14.775 41.7871 14.5083 41.7871H13.3333C13.0667 41.7899 12.9326 41.6579 12.9312 41.3913V34.9642C12.9299 34.3003 12.8049 33.81 12.5562 33.4934C12.2979 33.1739 11.8986 33.0142 11.3583 33.0142C10.3861 33.0142 9.40694 33.3128 8.42083 33.91C8.4348 34.008 8.44176 34.1069 8.44167 34.2059V41.3892C8.44167 41.6545 8.30972 41.7871 8.04583 41.7871H6.86667C6.60278 41.7899 6.47083 41.6579 6.47083 41.3913V34.9642C6.47083 34.3003 6.34375 33.81 6.08958 33.4934C5.83403 33.1739 5.43472 33.0142 4.89167 33.0142C3.88056 33.0142 2.90903 33.3059 1.97708 33.8892V41.3892C1.97986 41.6559 1.84792 41.7885 1.58125 41.7871L0.395833 41.7892ZM20.6687 42.0871C19.7257 42.0871 19.0007 41.8218 18.4937 41.2913C17.9896 40.7621 17.7375 40.0142 17.7375 39.0475V32.1309C17.7361 31.8614 17.8687 31.7274 18.1354 31.7288H19.3104C19.5799 31.7288 19.7139 31.8607 19.7125 32.1246V38.4204C19.7125 39.1329 19.8521 39.6586 20.1313 39.9975C20.4104 40.3336 20.8563 40.5017 21.4688 40.5017C22.4271 40.5017 23.3917 40.1836 24.3625 39.5475V32.1204C24.3597 31.8566 24.4917 31.7246 24.7583 31.7246H25.9354C26.2035 31.7246 26.3368 31.8566 26.3354 32.1204V41.3954C26.3354 41.6566 26.2021 41.7871 25.9354 41.7871H25.0812C24.9717 41.7937 24.8627 41.7668 24.7687 41.71C24.6965 41.6572 24.6465 41.5579 24.6187 41.4121L24.4813 40.7184C23.2424 41.6295 21.9715 42.0857 20.6687 42.0871ZM32.0021 42.0871C30.8826 42.0871 29.8785 41.9017 28.9896 41.5309C28.8639 41.4854 28.751 41.4104 28.6604 41.3121C28.6007 41.2316 28.5708 41.1066 28.5708 40.9371V40.3767C28.5694 40.1378 28.6493 40.0184 28.8104 40.0184C28.9021 40.0184 29.0674 40.0586 29.3062 40.1392C30.1882 40.417 31.1 40.5552 32.0417 40.5538C32.6958 40.5524 33.1917 40.4267 33.5292 40.1767C33.8694 39.9253 34.0389 39.5621 34.0375 39.0871C34.0426 38.9433 34.0178 38.8 33.9647 38.6663C33.9116 38.5325 33.8314 38.4112 33.7292 38.31C33.3951 38.0415 33.0125 37.8399 32.6021 37.7163L30.9042 37.0829C29.4264 36.5399 28.6889 35.6142 28.6917 34.3059C28.6903 33.4406 29.0264 32.7454 29.7 32.2204C30.3708 31.6899 31.2507 31.4246 32.3396 31.4246C33.2052 31.4257 34.0638 31.5809 34.875 31.8829C35.0061 31.9169 35.1246 31.9878 35.2167 32.0871C35.2806 32.1732 35.3132 32.3017 35.3146 32.4725V33.01C35.3146 33.2489 35.2292 33.3684 35.0583 33.3684C34.9009 33.3534 34.7458 33.3205 34.5958 33.2704C33.8965 33.0591 33.1701 32.951 32.4396 32.9496C31.1632 32.951 30.5243 33.3816 30.5229 34.2413C30.5229 34.5843 30.6306 34.8552 30.8458 35.0538C31.0583 35.2524 31.4771 35.4711 32.1021 35.71L33.6562 36.31C34.4424 36.61 35.0083 36.9704 35.3542 37.3913C35.6986 37.8038 35.8708 38.342 35.8708 39.0059C35.8708 39.9461 35.5187 40.694 34.8146 41.2496C34.1104 41.8052 33.1729 42.0829 32.0021 42.0829V42.0871ZM38.3875 41.7871C38.1208 41.7899 37.9868 41.6579 37.9854 41.3913V32.1204C37.9868 31.8566 38.1208 31.7246 38.3875 31.7246H39.5625C39.8292 31.7246 39.9632 31.8566 39.9646 32.1204V41.3954C39.9632 41.6566 39.8292 41.7871 39.5625 41.7871H38.3875ZM38.9854 29.9371C38.6007 29.9371 38.2972 29.8288 38.075 29.6121C37.9643 29.4983 37.8781 29.3631 37.8215 29.2148C37.7649 29.0665 37.7391 28.9082 37.7458 28.7496C37.7391 28.591 37.7649 28.4327 37.8215 28.2844C37.8781 28.1361 37.9643 28.0009 38.075 27.8871C38.1972 27.7745 38.3407 27.6873 38.497 27.6308C38.6534 27.5743 38.8194 27.5495 38.9854 27.5579C39.3687 27.5579 39.6708 27.6677 39.8917 27.8871C40.0033 28.0002 40.0903 28.1353 40.147 28.2837C40.2036 28.4322 40.2288 28.5909 40.2208 28.7496C40.2222 29.1038 40.1125 29.3913 39.8917 29.6121C39.7696 29.7235 39.6266 29.8096 39.4711 29.8654C39.3155 29.9211 39.1505 29.9455 38.9854 29.9371ZM47.3229 42.0059C45.7535 42.0059 44.5542 41.56 43.725 40.6684C42.8917 39.7739 42.475 38.4802 42.475 36.7871C42.475 35.1066 42.9042 33.8059 43.7625 32.885C44.6194 31.967 45.8333 31.5072 47.4042 31.5059C48.1222 31.5059 48.8271 31.6329 49.5187 31.8871C49.666 31.9371 49.7687 32.0024 49.8271 32.0829C49.9146 32.2038 49.9167 32.2975 49.9167 32.4788V33.0142C49.9167 33.2781 49.8312 33.41 49.6604 33.41C49.5514 33.4047 49.4435 33.3851 49.3396 33.3517C48.801 33.1939 48.2425 33.1146 47.6812 33.1163C46.5646 33.1163 45.7597 33.3968 45.2667 33.9579C44.5271 34.7996 44.5312 35.4163 44.5312 36.6517V36.9079C44.5312 38.1079 44.7812 38.9913 45.2812 39.5579C45.7812 40.1177 46.5687 40.3982 47.6437 40.3996C48.1993 40.401 48.7972 40.3079 49.4375 40.1204C49.5347 40.0888 49.6355 40.0692 49.7375 40.0621C49.9097 40.0621 49.9965 40.1941 49.9979 40.4579V40.9975C49.9979 41.1697 49.9708 41.2947 49.9167 41.3725C49.8335 41.4726 49.7237 41.547 49.6 41.5871C48.9472 41.8663 48.1882 42.0072 47.3229 42.0059Z" fill="#3D1FF4"/>
</svg>
