<svg width="50" height="50" viewBox="0 0 50 50" fill="none" xmlns="http://www.w3.org/2000/svg">
<g clip-path="url(#clip0_0_1241)">
<path d="M3.13086 20.1625C1.40169 20.1625 0.00585938 21.5583 0.00585938 23.2875V26.6833C0.00585937 27.0937 0.0866899 27.5001 0.243736 27.8792C0.400782 28.2584 0.630968 28.6029 0.921151 28.893C1.21133 29.1832 1.55583 29.4134 1.93497 29.5705C2.31412 29.7275 2.72048 29.8083 3.13086 29.8083C3.54124 29.8083 3.9476 29.7275 4.32675 29.5705C4.70589 29.4134 5.05038 29.1832 5.34057 28.893C5.63075 28.6029 5.86094 28.2584 6.01798 27.8792C6.17503 27.5001 6.25586 27.0937 6.25586 26.6833V23.2875C6.25586 21.5583 4.86003 20.1625 3.13086 20.1625Z" fill="#005BCF"/>
<path d="M13.9163 9.9375C12.1871 9.9375 10.7913 11.3333 10.7913 13.0625V24.2229C10.7913 25.0517 11.1205 25.8466 11.7066 26.4326C12.2926 27.0187 13.0875 27.3479 13.9163 27.3479C14.7451 27.3479 15.5399 27.0187 16.126 26.4326C16.712 25.8466 17.0413 25.0517 17.0413 24.2229V13.0375C17.0413 11.3083 15.6454 9.9125 13.9163 9.9125V9.9375Z" fill="#ED3735"/>
<path d="M13.9163 30.3896C12.1871 30.3896 10.7913 31.7854 10.7913 33.5146V36.9104C10.7913 37.7392 11.1205 38.5341 11.7066 39.1201C12.2926 39.7062 13.0875 40.0354 13.9163 40.0354C14.7451 40.0354 15.5399 39.7062 16.126 39.1201C16.712 38.5341 17.0413 37.7392 17.0413 36.9104V33.5354C17.0413 31.8062 15.6454 30.4104 13.9163 30.4104V30.3896Z" fill="#ED3735"/>
<path d="M24.9996 0C23.2704 0 21.8746 1.39583 21.8746 3.125V6.52083C21.8746 7.34963 22.2038 8.14449 22.7899 8.73054C23.3759 9.31659 24.1708 9.64583 24.9996 9.64583C25.8284 9.64583 26.6233 9.31659 27.2093 8.73054C27.7954 8.14449 28.1246 7.34963 28.1246 6.52083V3.125C28.1246 1.39583 26.7288 0.00208333 24.9996 0.00208333V0Z" fill="#FDB02D"/>
<path d="M24.9996 12.7667C23.2704 12.7667 21.8746 14.1833 21.8746 15.8917V34.075C21.8746 34.9038 22.2038 35.6987 22.7899 36.2847C23.3759 36.8708 24.1708 37.2 24.9996 37.2C25.8284 37.2 26.6233 36.8708 27.2093 36.2847C27.7954 35.6987 28.1246 34.9038 28.1246 34.075V15.9125C28.1246 14.1833 26.7288 12.7875 24.9996 12.7875V12.7667Z" fill="#FDB02D"/>
<path d="M24.9996 40.3229C23.2704 40.3229 21.8746 41.7187 21.8746 43.4479V46.8646C21.8732 47.275 21.9527 47.6816 22.1085 48.0613C22.2643 48.4409 22.4933 48.7862 22.7825 49.0773C23.0717 49.3685 23.4155 49.5998 23.7941 49.7581C24.1727 49.9164 24.5788 49.9986 24.9892 50C25.3996 50.0014 25.8062 49.9219 26.1859 49.7661C26.5655 49.6103 26.9108 49.3813 27.202 49.0921C27.4931 48.8029 27.7244 48.4591 27.8827 48.0805C28.0411 47.7019 28.1232 47.2958 28.1246 46.8854V43.4687C28.1246 41.7604 26.7288 40.3437 24.9996 40.3437V40.3229Z" fill="#FDB02D"/>
<path d="M36.0788 9.9375C34.3496 9.9375 32.9538 11.3333 32.9538 13.0625V16.4792C32.9538 17.308 33.283 18.1028 33.8691 18.6889C34.4551 19.2749 35.25 19.6042 36.0788 19.6042C36.9076 19.6042 37.7024 19.2749 38.2885 18.6889C38.8745 18.1028 39.2038 17.308 39.2038 16.4792V13.0625C39.2038 11.3333 37.8079 9.9375 36.0788 9.9375Z" fill="#1C9F4E"/>
<path fill-rule="evenodd" clip-rule="evenodd" d="M36.0809 22.7042C34.3517 22.7042 32.9559 24.1208 32.9559 25.8292V36.9292C32.9559 37.758 33.2851 38.5528 33.8711 39.1389C34.4572 39.7249 35.2521 40.0542 36.0809 40.0542C36.9097 40.0542 37.7045 39.7249 38.2906 39.1389C38.8766 38.5528 39.2059 37.758 39.2059 36.9292V25.8271C39.2059 24.0979 37.81 22.7042 36.0809 22.7042Z" fill="#1C9F4E"/>
<path d="M46.8684 20.1625C45.1392 20.1625 43.7434 21.5583 43.7434 23.2875V26.6833C43.7434 27.5121 44.0726 28.307 44.6586 28.893C45.2447 29.4791 46.0396 29.8083 46.8684 29.8083C47.6972 29.8083 48.492 29.4791 49.0781 28.893C49.6641 28.307 49.9934 27.5121 49.9934 26.6833V23.2875C49.9934 21.5583 48.5975 20.1625 46.8684 20.1625Z" fill="#337AED"/>
</g>
<defs>
<clipPath id="clip0_0_1241">
<rect width="50" height="50" fill="white"/>
</clipPath>
</defs>
</svg>
