<svg width="84" height="50" viewBox="0 0 84 50" fill="none" xmlns="http://www.w3.org/2000/svg">
<path d="M66.8708 15.823C66.8708 20.464 64.2811 25.0351 59.1703 29.4169C58.9348 29.6187 58.6261 29.7217 58.3121 29.7034C57.9981 29.685 57.7045 29.5467 57.4959 29.3189C57.2873 29.0912 57.1808 28.7926 57.1998 28.4889C57.2188 28.1852 57.3617 27.9012 57.5972 27.6994C62.1756 23.7727 64.5009 19.7763 64.5009 15.823V15.7699C64.5009 12.5608 62.4195 8.78356 59.761 7.17236C59.6289 7.0923 59.5143 6.98786 59.4239 6.86498C59.3335 6.7421 59.269 6.6032 59.234 6.45621C59.1991 6.30922 59.1945 6.15701 59.2204 6.00828C59.2463 5.85955 59.3022 5.71721 59.385 5.58939C59.4677 5.46156 59.5757 5.35076 59.7028 5.2633C59.8298 5.17584 59.9734 5.11344 60.1254 5.07966C60.2773 5.04588 60.4347 5.04139 60.5885 5.06643C60.7423 5.09148 60.8894 5.14557 61.0216 5.22562C64.3532 7.25209 66.8708 11.7834 66.8708 15.7699V15.823ZM51.48 25.5035C51.3441 25.58 51.1938 25.6295 51.0379 25.6492C50.882 25.6689 50.7235 25.6584 50.5719 25.6183C50.4202 25.5782 50.2783 25.5093 50.1544 25.4156C50.0306 25.3219 49.9272 25.2053 49.8504 25.0726C49.7736 24.9399 49.7249 24.7937 49.7071 24.6426C49.6892 24.4915 49.7027 24.3385 49.7466 24.1925C49.7906 24.0464 49.8641 23.9103 49.963 23.7921C50.0619 23.6738 50.1841 23.5758 50.3225 23.5037C53.0668 22.0154 54.9113 19.1252 54.9216 16.3047C54.9188 15.035 54.5578 13.7901 53.8775 12.7041C53.1972 11.6182 52.2234 10.7324 51.061 10.1423C50.9232 10.0723 50.801 9.97668 50.7014 9.86099C50.6018 9.7453 50.5267 9.61176 50.4805 9.46801C50.4342 9.32425 50.4177 9.1731 50.4319 9.02317C50.446 8.87324 50.4906 8.72748 50.563 8.5942C50.6354 8.46093 50.7342 8.34274 50.8538 8.24641C50.9734 8.15007 51.1115 8.07746 51.2601 8.03273C51.4087 7.988 51.565 7.97203 51.72 7.98571C51.875 7.9994 52.0257 8.04248 52.1635 8.1125C53.7053 8.89548 54.9974 10.07 55.9009 11.5099C56.8044 12.9497 57.2851 14.6005 57.2915 16.2848V16.3213C57.2778 19.9424 54.9456 23.6266 51.48 25.5035ZM41.9591 22.1316C40.594 22.1312 39.2851 21.6063 38.3202 20.6724C37.3553 19.7385 36.8135 18.4721 36.8139 17.1519C36.8144 15.8316 37.3571 14.5655 38.3226 13.6323C39.2882 12.699 40.5975 12.175 41.9625 12.1754C42.6384 12.1756 43.3076 12.3046 43.932 12.555C44.5564 12.8053 45.1236 13.1722 45.6014 13.6346C46.0792 14.097 46.4581 14.646 46.7165 15.25C46.975 15.8541 47.1079 16.5014 47.1077 17.1552C47.1074 17.8089 46.9741 18.4562 46.7152 19.0601C46.4564 19.664 46.0771 20.2127 45.599 20.6748C45.1209 21.1369 44.5534 21.5034 43.9288 21.7533C43.3043 22.0033 42.635 22.1319 41.9591 22.1316ZM34.049 25.0617C33.9731 25.1934 33.8711 25.3093 33.7489 25.4027C33.6267 25.4962 33.4866 25.5655 33.3366 25.6065C33.1867 25.6476 33.0298 25.6596 32.875 25.6419C32.7203 25.6243 32.5706 25.5772 32.4347 25.5035C28.9691 23.6266 26.6369 19.9424 26.6232 16.3213V16.2881C26.629 14.6033 27.1094 12.9518 28.013 11.5113C28.9165 10.0708 30.2089 8.89574 31.7512 8.1125C32.0264 7.99635 32.337 7.9853 32.6203 8.08157C32.9036 8.17785 33.1388 8.37431 33.2785 8.63145C33.4181 8.88859 33.452 9.18734 33.3732 9.46763C33.2944 9.74792 33.1088 9.98896 32.8537 10.1423C31.6913 10.7324 30.7175 11.6182 30.0372 12.7041C29.3569 13.7901 28.9959 15.035 28.9931 16.3047C29.0034 19.1252 30.8479 22.0154 33.5956 23.5003C33.7315 23.574 33.8509 23.6728 33.9473 23.7912C34.0436 23.9096 34.1148 24.0451 34.1569 24.1901C34.199 24.3351 34.2112 24.4868 34.1926 24.6363C34.1741 24.7859 34.1253 24.9304 34.049 25.0617ZM26.4206 29.3173C26.3177 29.4309 26.1926 29.5237 26.0524 29.5903C25.9123 29.6569 25.7599 29.696 25.604 29.7053C25.4481 29.7145 25.2919 29.6938 25.1444 29.6443C24.9968 29.5948 24.8609 29.5176 24.7444 29.4169C19.6405 25.0351 17.0439 20.464 17.0439 15.823V15.7699C17.0439 11.7834 19.5581 7.25209 22.8931 5.22562C23.1596 5.07835 23.4746 5.03648 23.7722 5.10878C24.0699 5.18108 24.3271 5.36194 24.49 5.6135C24.6529 5.86506 24.7088 6.16781 24.6461 6.45838C24.5834 6.74894 24.407 7.00479 24.1537 7.17236C21.4952 8.78356 19.4138 12.5608 19.4138 15.7699V15.823C19.4138 19.7763 21.7391 23.7727 26.3175 27.6994C26.4341 27.7991 26.5293 27.92 26.5976 28.0553C26.6658 28.1905 26.7059 28.3375 26.7155 28.4877C26.7251 28.638 26.7039 28.7885 26.6533 28.9309C26.6027 29.0732 26.5236 29.2045 26.4206 29.3173ZM56.2611 3.00396e-06C50.3294 3.00396e-06 45.0297 3.0397 41.9591 7.48131C38.8885 3.0397 33.5853 3.00396e-06 27.6536 3.00396e-06C25.4057 -0.00130718 23.1795 0.425977 21.1024 1.25742C19.0253 2.08887 17.138 3.30817 15.5484 4.8456C13.9589 6.38303 12.6983 8.20844 11.8386 10.2174C10.979 12.2264 10.5372 14.3796 10.5386 16.5539C10.5386 22.3542 14.3373 26.5367 18.3044 30.4069L33.8223 44.5988C34.0033 44.7645 34.2305 44.8752 34.4759 44.9172C34.7213 44.9592 34.974 44.9308 35.2028 44.8353C35.4316 44.7399 35.6265 44.5816 35.7633 44.3802C35.9001 44.1787 35.9728 43.9429 35.9724 43.7019V32.646C35.9724 29.4468 38.6515 26.8556 41.9591 26.849C43.5469 26.8516 45.0687 27.4635 46.1905 28.5504C47.3123 29.6373 47.9423 31.1103 47.9423 32.646V43.7019C47.9423 44.7849 49.2818 45.3396 50.0924 44.5988L65.6103 30.4069C69.5774 26.5367 73.3761 22.3542 73.3761 16.5539C73.3775 14.3796 72.9357 12.2264 72.0761 10.2174C71.2165 8.20844 69.9558 6.38303 68.3663 4.8456C66.7767 3.30817 64.8895 2.08887 62.8123 1.25742C60.7352 0.425977 58.5091 -0.00130718 56.2611 3.00396e-06Z" fill="#C4002B"/>
</svg>
