<svg width="50" height="50" viewBox="0 0 50 50" fill="none" xmlns="http://www.w3.org/2000/svg">
<g clip-path="url(#clip0_0_1233)">
<path d="M11.1667 0.0763021C5.02083 0.0763021 0 5.09714 0 11.243V38.7576C0 44.9034 5.02083 49.9242 11.1667 49.9242H38.8333C44.9687 49.9242 50 44.9034 50 38.7576V11.2409C50 5.09505 44.9687 0.0742188 38.8333 0.0742188L11.1667 0.0763021ZM24.8854 9.00339C29.0871 9.00393 33.1218 10.6487 36.1263 13.5859C39.1309 16.5231 40.8667 20.5194 40.9625 24.7201L40.9729 41.1701H33.9104V38.4076C31.2501 40.2106 28.1096 41.173 24.8958 41.1701C23.2094 41.1669 21.5338 40.9012 19.9292 40.3826V30.7367C21.32 31.9607 23.1098 32.6349 24.9625 32.6325C26.7364 32.6324 28.4548 32.0148 29.823 30.8858C31.1912 29.7567 32.1236 28.1866 32.4604 26.4451H29.7854C29.4401 27.5967 28.694 28.5867 27.6821 29.236C26.6702 29.8852 25.4593 30.1508 24.2685 29.9847C23.0777 29.8185 21.9858 29.2316 21.1902 28.3301C20.3947 27.4287 19.9481 26.2722 19.9312 25.0701V25.0055C19.9312 22.7242 21.4479 20.7909 23.5312 20.1805V17.5055C21.7881 17.8417 20.2163 18.7739 19.0854 20.1424C17.9545 21.5109 17.3351 23.2302 17.3333 25.0055V39.2805C14.1684 37.5939 11.6579 34.8979 10.2009 31.6209C8.74393 28.3439 8.42397 24.6739 9.29192 21.1943C10.1599 17.7146 12.1659 14.6248 14.9912 12.416C17.8166 10.2072 21.2991 9.006 24.8854 9.00339ZM24.95 12.8992V15.4784H24.9625C27.4893 15.4795 29.9122 16.4839 31.6987 18.2708C33.4852 20.0576 34.489 22.4808 34.4896 25.0075V25.0284H37.0667V25.0075C37.0667 21.7973 35.7914 18.7186 33.5214 16.4486C31.2515 14.1786 28.1727 12.9034 24.9625 12.9034L24.95 12.8992ZM24.95 17.3763V19.9721H24.9625C25.6235 19.9716 26.2782 20.1014 26.889 20.3542C27.4998 20.607 28.0548 20.9777 28.5221 21.4453C28.9894 21.9128 29.36 22.4679 29.6125 23.0788C29.865 23.6897 29.9946 24.3444 29.9937 25.0055V25.0263H32.5917V25.0055C32.5922 24.0034 32.3953 23.0111 32.012 22.0853C31.6288 21.1594 31.0669 20.3182 30.3584 19.6096C29.6498 18.9011 28.8086 18.3391 27.8827 17.9559C26.9568 17.5727 25.9645 17.3758 24.9625 17.3763H24.95ZM24.95 22.068C23.325 22.068 22.0146 23.3784 22.0146 25.0055C22.0146 26.6326 23.325 27.9409 24.9521 27.9409C26.5792 27.9409 27.8875 26.6305 27.8875 25.0034C27.8875 23.3763 26.5771 22.068 24.95 22.068Z" fill="#F77735"/>
</g>
<defs>
<clipPath id="clip0_0_1233">
<rect width="50" height="50" fill="white"/>
</clipPath>
</defs>
</svg>
