<svg width="64" height="64" viewBox="0 0 64 64" fill="none" xmlns="http://www.w3.org/2000/svg">
<rect width="64" height="64" fill="#F58505"/>
<path d="M20.9892 15.0448C18.6998 15.4629 16.8559 17.1829 16.2777 19.4551C15.9651 20.6701 16.1136 22.3033 16.6371 23.471C17.981 26.4375 21.6767 27.7472 24.5599 26.2718L25.1381 25.972L25.31 25.2935C25.6382 23.9838 26.3101 22.8082 27.2946 21.8378L27.8884 21.2461L27.865 20.6307C27.8025 18.9975 27.0133 17.388 25.7554 16.3466C25.1772 15.8574 24.2083 15.3525 23.5129 15.1631C22.9347 15.0132 21.5517 14.9501 20.9892 15.0448Z" fill="white"/>
<path d="M40.9908 15.0447C39.6235 15.2971 38.2327 16.1177 37.4201 17.1591C36.6856 18.098 36.1699 19.3998 36.123 20.4412L36.0996 20.8831L36.5684 21.2223C37.8733 22.1849 38.9437 23.8259 39.2953 25.3881C39.5219 26.4216 39.4594 26.3427 40.1938 26.5952C41.444 27.0212 43.0457 26.9581 44.2803 26.4295C45.8273 25.7668 47.0853 24.394 47.5775 22.8318C48.3354 20.4333 47.6166 17.8929 45.757 16.3465C45.1788 15.8573 44.2099 15.3524 43.5145 15.163C42.9364 15.0131 41.5534 14.95 40.9908 15.0447Z" fill="white"/>
<path d="M30.8171 21.2856C27.8636 22.0509 25.9493 25.0174 26.4728 28.0313C26.9338 30.7059 28.9419 32.631 31.6141 32.9623C34.38 33.3016 37.0288 31.5816 37.8961 28.8912C38.1461 28.1181 38.2321 26.8005 38.0914 25.9642C37.6929 23.6604 35.8333 21.7195 33.5596 21.2304C32.8095 21.0726 31.5281 21.0962 30.8171 21.2856Z" fill="white"/>
<path d="M18.6836 27.2817C15.9645 27.5736 13.5501 29.3961 12.5266 31.9366C12.0265 33.1753 12.0421 33.0412 12.0109 37.27C11.9953 39.4081 11.9953 41.1597 12.0187 41.1597C12.0343 41.1597 12.6125 41.3175 13.2923 41.5147C15.4957 42.1459 18.1757 42.6587 19.879 42.777C20.2853 42.8086 20.6838 42.8481 20.7619 42.8717C20.8791 42.9033 20.8948 42.8244 20.8948 41.9328C20.9026 40.5995 21.012 39.5344 21.2464 38.6507C21.973 35.9051 24.0436 33.6092 26.7158 32.5993C27.0205 32.481 27.2783 32.3784 27.294 32.3626C27.3096 32.3469 27.1064 32.0944 26.8486 31.8025C25.9657 30.8084 25.2625 29.2383 25.1374 27.9444C25.0828 27.3685 25.0593 27.3132 24.8796 27.2659C24.6061 27.187 19.4258 27.2028 18.6836 27.2817Z" fill="white"/>
<path d="M39.4915 27.4868C39.4915 27.9917 39.2102 29.1752 38.9446 29.8142C38.6477 30.5401 38.2101 31.2423 37.6788 31.8734C37.46 32.1259 37.2959 32.3468 37.3116 32.3547C37.3272 32.3705 37.6319 32.4967 37.9835 32.6387C40.3119 33.5618 42.1793 35.4869 43.0623 37.8538C43.492 39.0057 43.5623 39.4712 43.6092 41.2622L43.6483 42.9111L44.4843 42.8559C46.9924 42.6981 49.4927 42.1458 51.3523 41.3411L52.0008 41.0571L51.9696 37.2227C51.9383 33.049 51.9539 33.1752 51.4539 31.9366C50.6022 29.8142 48.7036 28.1179 46.5158 27.5104C45.6172 27.2659 44.6484 27.1949 41.9762 27.1949H39.4915V27.4868Z" fill="white"/>
<path d="M28.2468 33.5146C25.9887 33.9958 24.051 35.5028 23.0431 37.5699C22.3242 39.0531 22.2227 39.8184 22.2227 44.0552V47.2269L22.9884 47.4635C25.1996 48.1499 27.1607 48.5602 29.6454 48.8679C30.9971 49.0257 34.4819 49.0494 35.7008 48.8995C38.2246 48.5997 40.2639 48.0947 41.7797 47.4004L42.311 47.1558L42.2797 43.3925C42.2485 39.345 42.2563 39.416 41.8109 38.1931C41.1233 36.3075 39.2872 34.4929 37.3885 33.8144C36.1774 33.3804 35.7868 33.3489 32.2317 33.3568C29.3016 33.3568 28.9109 33.3725 28.2468 33.5146Z" fill="white"/>
</svg>
