<svg width="40" height="34" viewBox="0 0 40 34" fill="none" xmlns="http://www.w3.org/2000/svg">
<path d="M8.98916 0.0447779C6.69983 0.462933 4.85586 2.18289 4.27767 4.45512C3.96513 5.67013 4.11359 7.3033 4.63709 8.47098C5.981 11.4375 9.67675 12.7472 12.5599 11.2718L13.1381 10.972L13.31 10.2935C13.6382 8.98381 14.3101 7.80824 15.2946 6.83781L15.8884 6.24608L15.865 5.63069C15.8025 3.99752 15.0133 2.38802 13.7554 1.34658C13.1772 0.857417 12.2083 0.352476 11.5129 0.163124C10.9347 0.0132198 9.55173 -0.0498981 8.98916 0.0447779Z" fill="white"/>
<path d="M28.9908 0.0446796C27.6235 0.29715 26.2327 1.11768 25.4201 2.15912C24.6856 3.09799 24.1699 4.39979 24.123 5.44123L24.0996 5.88306L24.5684 6.22231C25.8733 7.18486 26.9437 8.82591 27.2953 10.3881C27.5219 11.4216 27.4594 11.3427 28.1938 11.5952C29.444 12.0212 31.0457 11.9581 32.2803 11.4295C33.8273 10.7668 35.0853 9.39397 35.5775 7.83181C36.3354 5.43334 35.6166 2.89286 33.757 1.34648C33.1788 0.857318 32.2099 0.352378 31.5145 0.163025C30.9364 0.0131207 29.5534 -0.0499973 28.9908 0.0446796Z" fill="white"/>
<path d="M18.8171 6.28558C15.8636 7.05088 13.9493 10.0174 14.4728 13.0313C14.9338 15.7059 16.9419 17.631 19.6141 17.9623C22.38 18.3016 25.0288 16.5816 25.8961 13.8912C26.1461 13.1181 26.2321 11.8005 26.0914 10.9642C25.6929 8.66038 23.8333 6.71951 21.5596 6.23035C20.8095 6.07256 19.5281 6.09623 18.8171 6.28558Z" fill="white"/>
<path d="M6.68356 12.2817C3.96448 12.5736 1.55014 14.3961 0.526577 16.9366C0.0265178 18.1753 0.0421447 18.0412 0.010891 22.27C-0.0047359 24.4081 -0.0047359 26.1597 0.0187044 26.1597C0.0343312 26.1597 0.612525 26.3175 1.29229 26.5147C3.49568 27.1459 6.17568 27.6587 7.87901 27.777C8.28531 27.8086 8.68379 27.8481 8.76193 27.8717C8.87913 27.9033 8.89476 27.8244 8.89476 26.9328C8.90257 25.5995 9.01196 24.5344 9.24636 23.6507C9.97301 20.9051 12.0436 18.6092 14.7158 17.5993C15.0205 17.481 15.2783 17.3784 15.294 17.3626C15.3096 17.3469 15.1064 17.0944 14.8486 16.8025C13.9657 15.8084 13.2625 14.2383 13.1374 12.9444C13.0828 12.3685 13.0593 12.3132 12.8796 12.2659C12.6061 12.187 7.42583 12.2028 6.68356 12.2817Z" fill="white"/>
<path d="M27.4915 12.4868C27.4915 12.9917 27.2102 14.1752 26.9446 14.8142C26.6477 15.5401 26.2101 16.2423 25.6788 16.8734C25.46 17.1259 25.2959 17.3468 25.3116 17.3547C25.3272 17.3705 25.6319 17.4967 25.9835 17.6387C28.3119 18.5618 30.1793 20.4869 31.0623 22.8538C31.492 24.0057 31.5623 24.4712 31.6092 26.2622L31.6483 27.9111L32.4843 27.8559C34.9924 27.6981 37.4927 27.1458 39.3523 26.3411L40.0008 26.0571L39.9696 22.2227C39.9383 18.049 39.9539 18.1752 39.4539 16.9366C38.6022 14.8142 36.7036 13.1179 34.5158 12.5104C33.6172 12.2659 32.6484 12.1949 29.9762 12.1949H27.4915V12.4868Z" fill="white"/>
<path d="M16.2468 18.5146C13.9887 18.9958 12.051 20.5028 11.0431 22.5699C10.3242 24.0531 10.2227 24.8184 10.2227 29.0552V32.2269L10.9884 32.4635C13.1996 33.1499 15.1607 33.5602 17.6454 33.8679C18.9971 34.0257 22.4819 34.0494 23.7008 33.8995C26.2246 33.5997 28.2639 33.0947 29.7797 32.4004L30.311 32.1558L30.2797 28.3925C30.2485 24.345 30.2563 24.416 29.8109 23.1931C29.1233 21.3075 27.2872 19.4929 25.3885 18.8144C24.1774 18.3804 23.7868 18.3489 20.2317 18.3568C17.3016 18.3568 16.9109 18.3725 16.2468 18.5146Z" fill="white"/>
</svg>
