<svg width="40" height="28" viewBox="0 0 40 28" fill="none" xmlns="http://www.w3.org/2000/svg">
<rect x="5.46289" y="0.716064" width="29.4187" height="19.3353" fill="#202020"/>
<path d="M4.58837 0.15118C4.21381 0.326233 3.97191 0.580853 3.80804 0.970741C3.70659 1.23332 3.69099 2.4189 3.69099 11.2033V21.1336L1.8494 23.3854L0 25.6451L0.0468201 26.0748C0.124854 26.8148 0.593055 27.4434 1.31096 27.7855L1.70113 27.9685L19.8439 27.9924C39.8829 28.0083 38.4393 28.0481 39.1338 27.507C39.5942 27.149 39.8986 26.6238 39.9532 26.0828L40 25.6451L38.1506 23.3854L36.309 21.1336V11.1874C36.309 1.67891 36.3012 1.21741 36.1607 0.915045C35.9891 0.533113 35.7394 0.286449 35.357 0.119354C35.0995 0.0159149 33.4218 0 19.9844 0C5.48576 0 4.8849 0.00795746 4.58837 0.15118ZM33.6012 1.69482C34.1631 2.13245 34.1319 1.47203 34.1085 10.6782L34.0851 18.9772L33.9056 19.2398C33.8041 19.383 33.6091 19.5581 33.4764 19.6377C33.2423 19.765 32.4073 19.7729 19.9922 19.7729H6.76551L6.44557 19.5581C5.83691 19.1443 5.87593 19.7809 5.87593 10.5827C5.87593 1.54364 5.84471 2.12449 6.35973 1.72665C6.5002 1.61525 6.68748 1.51181 6.77331 1.48794C6.85915 1.46407 12.8677 1.45611 20.1249 1.46407L33.3203 1.47203L33.6012 1.69482ZM25.478 25.0086L26.0008 25.661L22.9965 25.6849C21.35 25.6929 18.65 25.6929 17.0035 25.6849L13.9992 25.661L14.522 25.0086L15.0449 24.3561H20H24.9551L25.478 25.0086ZM23.2306 26.6716C23.293 26.775 23.293 26.8546 23.2306 26.9501C23.1526 27.0853 22.895 27.0933 20.039 27.1172C16.8396 27.1331 16.7226 27.1251 16.7226 26.8227C16.7226 26.4965 16.7928 26.4965 20.0312 26.5124C22.895 26.5363 23.1526 26.5443 23.2306 26.6716Z" fill="white"/>
</svg>
