<svg width="64" height="64" viewBox="0 0 64 64" fill="none" xmlns="http://www.w3.org/2000/svg">
<rect width="64" height="64" fill="#040707"/>
<rect x="17.4629" y="18.7161" width="29.4187" height="19.3353" fill="#202020"/>
<path d="M16.5884 18.1512C16.2138 18.3262 15.9719 18.5809 15.808 18.9707C15.7066 19.2333 15.691 20.4189 15.691 29.2033V39.1336L13.8494 41.3854L12 43.6451L12.0468 44.0748C12.1249 44.8148 12.5931 45.4434 13.311 45.7855L13.7011 45.9685L31.8439 45.9924C51.8829 46.0083 50.4393 46.0481 51.1338 45.507C51.5942 45.149 51.8986 44.6238 51.9532 44.0828L52 43.6451L50.1506 41.3854L48.309 39.1336V29.1874C48.309 19.6789 48.3012 19.2174 48.1607 18.915C47.9891 18.5331 47.7394 18.2864 47.357 18.1194C47.0995 18.0159 45.4218 18 31.9844 18C17.4858 18 16.8849 18.008 16.5884 18.1512ZM45.6012 19.6948C46.1631 20.1325 46.1319 19.472 46.1085 28.6782L46.0851 36.9772L45.9056 37.2398C45.8041 37.383 45.6091 37.5581 45.4764 37.6377C45.2423 37.765 44.4073 37.7729 31.9922 37.7729H18.7655L18.4456 37.5581C17.8369 37.1443 17.8759 37.7809 17.8759 28.5827C17.8759 19.5436 17.8447 20.1245 18.3597 19.7266C18.5002 19.6153 18.6875 19.5118 18.7733 19.4879C18.8591 19.4641 24.8677 19.4561 32.1249 19.4641L45.3203 19.472L45.6012 19.6948ZM37.478 43.0086L38.0008 43.661L34.9965 43.6849C33.35 43.6929 30.65 43.6929 29.0035 43.6849L25.9992 43.661L26.522 43.0086L27.0449 42.3561H32H36.9551L37.478 43.0086ZM35.2306 44.6716C35.293 44.775 35.293 44.8546 35.2306 44.9501C35.1526 45.0853 34.895 45.0933 32.039 45.1172C28.8396 45.1331 28.7226 45.1251 28.7226 44.8227C28.7226 44.4965 28.7928 44.4965 32.0312 44.5124C34.895 44.5363 35.1526 44.5443 35.2306 44.6716Z" fill="white"/>
</svg>
