<svg width="64" height="64" viewBox="0 0 64 64" fill="none" xmlns="http://www.w3.org/2000/svg">
<rect width="64" height="64" fill="#A3CCC4"/>
<path d="M28.3948 12.4956C27.9225 12.6591 27.4984 13.0631 27.2671 13.5537C27.1033 13.9097 27.084 14.2463 27.084 17.8633C27.084 21.1916 27.1033 21.8361 27.2286 22.144C27.4213 22.5961 27.7105 22.8943 28.1924 23.154C28.5683 23.356 28.6936 23.3656 33.4165 23.4137L38.255 23.4618L39.3249 24.443C40.2598 25.3088 40.4333 25.4338 40.7321 25.4338C40.9634 25.4338 41.1465 25.3569 41.3007 25.1934L41.5417 24.9625V19.4697C41.5417 13.4768 41.5513 13.5922 40.9827 12.9862C40.8381 12.8323 40.5489 12.6303 40.3369 12.5341C39.9803 12.3705 39.6044 12.3513 34.361 12.3609C29.8599 12.3609 28.6936 12.3898 28.3948 12.4956Z" fill="white"/>
<path d="M23.6638 15.9972C23.4518 16.0934 23.1626 16.2954 23.018 16.4493C22.4494 17.0554 22.459 16.9399 22.459 22.9329V28.4256L22.7 28.6565C22.8542 28.82 23.0373 28.897 23.2783 28.897C23.5771 28.897 23.7409 28.7719 24.6951 27.8869L25.7843 26.8769H30.3915C33.389 26.8769 35.1432 26.8384 35.4131 26.7711C36.1649 26.5787 36.9071 25.7418 36.9167 25.078V24.8664L32.5601 24.8375L28.1939 24.8087L27.6445 24.5393C26.9023 24.1738 26.2566 23.51 25.8903 22.7405L25.5915 22.1152L25.5626 18.96L25.5337 15.8144Heading4.7915C24.271 15.8144 23.9337 15.8722 23.6638 15.9972Z" fill="white"/>
<path d="M14.5828 23.5964C13.1563 24.087 12.2406 25.2894 12.1635 26.7708C12.1057 27.7231 12.2695 28.3773 12.7225 29.0795C13.9755 31.013 16.7611 31.2824 18.39 29.6374C19.9996 28.0021 19.7586 25.3279 17.8984 24.0485C17.6189 23.8561 17.1755 23.6348 16.9153 23.5579C16.2791 23.3655 15.1996 23.3847 14.5828 23.5964Z" fill="white"/>
<path d="M46.959 23.5963C44.4241 24.539 43.7108 27.7712 45.6193 29.647C45.8988 29.9163 46.3807 30.2626 46.6988 30.4069C47.2096 30.6474 47.3831 30.6763 48.2409 30.6763C49.1084 30.6667 49.2626 30.6378 49.7831 30.3877C50.5156 30.0318 51.2192 29.3392 51.5469 28.6273C51.7783 28.1367 51.8072 27.9636 51.8072 27.069C51.8072 26.1166 51.7879 26.0108 51.4987 25.424C51.1228 24.6641 50.5156 24.0677 49.7542 23.7214C49.0024 23.3751 47.7108 23.3173 46.959 23.5963Z" fill="white"/>
<path d="M14.747 31.7346C14.4578 31.8212 14.0434 31.9943 13.8217 32.1194C13.2337 32.4657 12.4819 33.3315 12.2217 33.976C12 34.5243 12 34.5339 12 39.1897V43.8552L12.3181 44.4997C12.6651 45.2212 13.1663 45.6829 13.9373 46.0388C14.3903 46.2505 14.5349 46.2601 17.2626 46.2889L20.1252 46.3178L22.0144 49.0016C23.065 50.483 24.0192 51.7721 24.1541 51.8779C25.2144 52.7148 26.7951 52.4262 27.5083 51.2718C27.8649 50.7139 27.9613 49.8193 27.73 49.2806C27.4601 48.6361 23.4023 42.5085 22.9108 41.9986C22.2553 41.3349 21.1084 40.7481 20.2698 40.6615L19.6626 40.6038V38.1701V35.7267L20.5975 36.4482L21.5228 37.1696Heading4.4529Heading7.383L27.6143 36.9291C27.9131 36.6406 27.9324 36.1403 27.6529 35.7844L27.4601 35.5343Heading4.8385L22.2168 35.5247L20.0963 33.8798C18.9012 32.9563 17.7156 32.1098 17.3686 31.9559C16.6265 31.5999 15.5566 31.5134 14.747 31.7346Z" fill="white"/>
<path d="M47.2966 31.6864C46.6122 31.8595 46.0146 32.2443 43.9038 33.8892L41.7833 35.5342H39.1617H36.54L36.3472 35.7843C36.0677 36.1402 36.087 36.6404 36.3858 36.929L36.6171 37.1695H39.5472H42.4773L43.3544 36.4961C43.8363 36.121 44.2508 35.8228 44.2797 35.8228C44.3086 35.8228 44.3375 36.9002 44.3375 38.218V40.6037L43.74 40.6614C42.8918 40.748 41.7448 41.3347 41.0894 41.9985C40.5978 42.5083 36.54 48.636 36.2701 49.2805C36.0388 49.8192 36.1352 50.7138 36.4918 51.2717C37.0798 52.224 38.2846 52.6184 39.2966 52.1759C39.5665 52.0605 39.8749 51.8777 39.981 51.7623C40.0966 51.6469 41.0123 50.3771 42.0243 48.9534L43.8653 46.3561L46.7279 46.308C49.5616 46.2599 49.6002 46.2599 50.1206 46.0098C50.8917 45.6539 51.3254 45.2306 51.6821 44.4996L52.0001 43.8551V39.1896V34.5241L51.7688 33.947C51.4411 33.1389 50.4773 32.1866 49.6869 31.8884C49.0411 31.6383 47.8652 31.5421 47.2966 31.6864Z" fill="white"/>
<path d="M24.9158 38.3432C24.8098 38.4009 24.6652 38.5163 24.6074 38.5933C24.4243 38.8241 24.4532 39.4205 24.6652 39.6803L24.8483 39.9111H32.0001H39.1519L39.335 39.6803C39.5181 39.459 39.5759 38.9684 39.4603 38.6606C39.2868 38.2277 39.2579 38.2277 31.9808 38.2277C27.1905 38.2373 25.0508 38.2662 24.9158 38.3432Z" fill="white"/>
</svg>
