<svg width="64" height="64" viewBox="0 0 64 64" fill="none" xmlns="http://www.w3.org/2000/svg">
<rect width="64" height="64" fill="#040707"/>
<g clip-path="url(#clip0_0_593)">
<path d="M29.2119 30.0292H30.8076C31.2534 30.0292 31.6161 29.6665 31.6161 29.2207C31.6161 28.7893 31.966 28.4395 32.3974 28.4395C32.8288 28.4395 33.1786 28.7893 33.1786 29.2207C33.1786 30.528 32.1151 31.5917 30.8076 31.5917H29.2119C28.7804 31.5917 28.4306 31.2419 28.4306 30.8105C28.4306 30.3791 28.7804 30.0292 29.2119 30.0292ZM40.2197 41.7477H47.2654C49.0362 41.7477 50.506 43.2365 50.3886 45.0807C50.2883 46.6593 48.9705 47.9437 47.3886 48.0049C46.4525 48.0416 45.5566 47.6612 44.9328 46.9643C44.645 46.6429 44.6724 46.1489 44.9939 45.8612C45.3152 45.5735 45.8094 45.6007 46.097 45.9223C46.4099 46.2717 46.8591 46.4598 47.3283 46.4437C48.1198 46.413 48.7791 45.7709 48.8293 44.9816C48.8875 44.0666 48.1662 43.3102 47.2654 43.3102H40.2197C39.7883 43.3102 39.4385 42.9604 39.4385 42.529C39.4385 42.0976 39.7883 41.7477 40.2197 41.7477ZM40.2197 38.6164H48.8311C49.7347 38.6164 50.4529 37.8566 50.3951 36.9452C50.3448 36.1559 49.6855 35.5137 48.894 35.483C48.4254 35.4657 47.9755 35.6548 47.6626 36.0044C47.3747 36.3259 46.8809 36.3532 46.5595 36.0655C46.238 35.7777 46.2106 35.2837 46.4984 34.9623C47.1228 34.2647 48.0188 33.8859 48.9543 33.9218C50.5362 33.9828 51.854 35.2673 51.9543 36.846C52.0719 38.6928 50.5994 40.1789 48.8311 40.1789H40.2197C39.7883 40.1789 39.4385 39.8291 39.4385 39.3977C39.4385 38.9663 39.7883 38.6164 40.2197 38.6164Z" fill="white"/>
<path d="M12.0387 27.6542V24.3025C12.0387 19.6773 15.8016 15.9144 20.4269 15.9144H27.5687C29.9972 15.9144 32.2012 14.5758 33.3205 12.4212C33.5522 11.9752 34.144 11.8576 34.5282 12.1933C37.339 14.6521 38.4567 18.1016 37.7602 22.169C37.5869 23.1798 37.153 24.0874 36.5346 24.8298V30.6501L40.0249 34.6449C40.3335 34.998 40.2632 35.542 39.8755 35.8053L38.1426 36.9819V38.6151C38.1426 38.8376 38.0478 39.0494 37.882 39.1976L36.5575 40.3817C37.5018 41.758 37.5011 41.7159 37.5599 41.8677C38.2595 43.6757 37.3237 44.6208 37.0217 44.8662C36.9389 44.9337 36.8592 45.0045 36.7865 45.0748C36.2634 45.5835 35.3585 45.8412 34.0964 45.8412C33.976 45.8412 33.6208 45.8355 32.383 45.8416C31.5232 45.8458 30.8237 46.5489 30.8237 47.4089V51.2191C30.8237 51.6505 30.4738 52.0003 30.0424 52.0003H17.4285C16.9894 52.0003 16.637 51.6385 16.6475 51.2004C16.7932 45.1212 16.7443 46.1826 16.8821 44.282C16.9455 43.4038 17.0417 42.3997 16.6635 41.112C15.7388 38.5144 12.0087 35.0944 12.0387 27.6542ZM29.2613 50.4376V47.4087C29.2613 45.6913 30.6584 44.2873 32.3755 44.279C33.0659 44.2755 33.6672 44.2754 34.0255 44.2782C35.0025 44.2871 35.538 44.1093 35.6991 43.9526C35.8048 43.8505 35.9172 43.7508 36.0349 43.6547C36.2876 43.4494 36.3216 43.0461 36.1332 42.5137L34.8801 40.7038C34.6558 40.3798 34.708 39.9394 35.0018 39.6767L36.5801 38.2656V36.568C36.5801 36.3092 36.7084 36.0671 36.9226 35.9217L38.2677 35.0084L35.1651 31.4574C35.0407 31.3151 34.9722 31.1325 34.9722 30.9434V26.133C34.1392 26.6043 33.1776 26.8711 32.1586 26.8711H27.293C23.9803 26.8711 21.2334 29.4616 21.039 32.7751L20.7084 37.7207C20.654 38.5343 20.2913 39.2839 19.6871 39.8313L18.2776 41.1083C18.4787 41.9632 18.5483 42.8645 18.4837 43.7952C18.2141 47.6322 18.3998 45.03 18.2289 50.4378H29.2613V50.4376Z" fill="white"/>
</g>
<defs>
<clipPath id="clip0_0_593">
<rect width="40" height="40" fill="white" transform="matrix(-1 0 0 1 52 12)"/>
</clipPath>
</defs>
</svg>
