<svg width="65" height="64" viewBox="0 0 65 64" fill="none" xmlns="http://www.w3.org/2000/svg">
<rect width="64" height="64" transform="translate(0.5)" fill="#F58505"/>
<path d="M16.249 18.6734L14.1749 19.5615L14.667 20.7106L16.7411 19.8225L16.249 18.6734Z" fill="white"/>
<path d="M21.0069 17.0163L18.9328 17.9044L19.4248 19.0535L21.4989 18.1654L21.0069 17.0163Z" fill="white"/>
<path d="M17.8184 15.1981L17.5509 17.4385L18.7921 17.5867L19.0596 15.3464L17.8184 15.1981Z" fill="white"/>
<path d="M15.4018 16.0454L14.6525 17.0459L16.4584 18.3984L17.2077 17.3979L15.4018 16.0454Z" fill="white"/>
<path d="M29.6438 43.925L31.35 31.125C31.5245 29.7584 32.0619 28.4636 32.9063 27.375C32.3468 26.9646 31.7505 26.6068 31.125 26.3062V23.25C31.125 23.0842 31.0592 22.9253 30.942 22.8081C30.8248 22.6908 30.6658 22.625 30.5 22.625H26.75V20.125C26.75 19.462 26.4866 18.8261 26.0178 18.3572C25.549 17.8884 24.9131 17.625 24.25 17.625H23.625C22.962 17.625 22.3261 17.8884 21.8573 18.3572C21.3884 18.8261 21.125 19.462 21.125 20.125C21.125 20.4565 20.9933 20.7745 20.7589 21.0089C20.5245 21.2433 20.2066 21.375 19.875 21.375C19.5435 21.375 19.2256 21.2433 18.9911 21.0089C18.7567 20.7745 18.625 20.4565 18.625 20.125V19.5H17.375V20.125C17.375 20.788 17.6384 21.4239 18.1073 21.8928C18.5761 22.3616 19.212 22.625 19.875 22.625C20.5381 22.625 21.174 22.3616 21.6428 21.8928C22.1116 21.4239 22.375 20.788 22.375 20.125C22.375 19.7935 22.5067 19.4755 22.7411 19.2411C22.9756 19.0067 23.2935 18.875 23.625 18.875H24.25C24.5816 18.875 24.8995 19.0067 25.1339 19.2411C25.3683 19.4755 25.5 19.7935 25.5 20.125V22.625H21.75C21.5843 22.625 21.4253 22.6908 21.3081 22.8081C21.1909 22.9253 21.125 23.0842 21.125 23.25V26.3062C18.5589 27.6169 16.5935 29.8623 15.6341 32.5794C14.6747 35.2965 14.7945 38.2781 15.9687 40.9095C17.1429 43.5409 19.2821 45.6214 21.9451 46.722C24.6081 47.8227 27.5919 47.8595 30.2813 46.825C29.7372 45.9622 29.5117 44.9364 29.6438 43.925ZM36.2438 21.1188C36.9427 21.9954 37.4918 22.9816 37.8688 24.0375C38.2263 23.8977 38.6113 23.8421 38.9938 23.875C44.2813 23.875 43.8375 23.7687 44.5875 24.1312C44.993 23.0672 45.482 22.0369 46.05 21.05C46.1143 20.9431 46.1451 20.8193 46.1385 20.6947C46.1318 20.5701 46.088 20.4504 46.0127 20.3509C45.9374 20.2514 45.8341 20.1767 45.716 20.1364C45.5979 20.0962 45.4704 20.0922 45.35 20.125C43.6938 20.475 43.3 20.8 42.6 20.5438L42.175 20.3875C40.9938 19.9562 40.1 20.4937 39.6313 20.5875C39.0063 20.7812 38.6313 20.5062 36.9 20.125C36.7724 20.089 36.6367 20.0945 36.5125 20.1408C36.3882 20.187 36.2819 20.2715 36.2089 20.3821C36.1358 20.4927 36.0998 20.6237 36.1061 20.7561C36.1124 20.8886 36.1606 21.0155 36.2438 21.1188ZM39.0688 34.5C39.0688 34.8315 39.2005 35.1495 39.4349 35.3839C39.6693 35.6183 39.9873 35.75 40.3188 35.75H40.5V33.25H40.3188C39.9873 33.25 39.6693 33.3817 39.4349 33.6161C39.2005 33.8505 39.0688 34.1685 39.0688 34.5ZM41.75 39.5H41.9313C42.2628 39.5 42.5807 39.3683 42.8152 39.1339C43.0496 38.8995 43.1813 38.5815 43.1813 38.25C43.1813 37.9185 43.0496 37.6005 42.8152 37.3661C42.5807 37.1317 42.2628 37 41.9313 37H41.75V39.5Z" fill="white"/>
<path d="M49.6622 31.2882C49.5203 30.2261 49.1202 29.2149 48.497 28.3433C47.8738 27.4716 47.0464 26.766 46.0872 26.2882C43.8435 25.1819 43.881 25.1257 43.6247 25.1257C38.3122 25.1257 38.581 25.0757 38.3435 25.1944L36.1622 26.2819C35.2031 26.7597 34.3757 27.4654 33.7525 28.337C33.1293 29.2087 32.7292 30.2198 32.5872 31.2819L30.881 44.0882C30.8219 44.5318 30.8588 44.9829 30.9891 45.4111C31.1195 45.8392 31.3403 46.2343 31.6366 46.5697C31.9329 46.9051 32.2978 47.173 32.7066 47.3552C33.1153 47.5374 33.5585 47.6296 34.006 47.6257H48.2685C48.716 47.6296 49.1592 47.5374 49.5679 47.3552C49.9767 47.173 50.3416 46.9051 50.6379 46.5697C50.9342 46.2343 51.155 45.8392 51.2853 45.4111C51.4157 44.9829 51.4526 44.5318 51.3935 44.0882L49.6622 31.2882ZM41.931 35.7507C42.594 35.7507 43.2299 36.0141 43.6988 36.4829C44.1676 36.9518 44.431 37.5876 44.431 38.2507C44.431 38.9137 44.1676 39.5496 43.6988 40.0184C43.2299 40.4873 42.594 40.7507 41.931 40.7507H41.7497V42.2694H40.4997V40.7507H40.3185C39.6555 40.7507 39.0196 40.4873 38.5507 40.0184C38.0819 39.5496 37.8185 38.9137 37.8185 38.2507H39.0685C39.0685 38.5822 39.2002 38.9001 39.4346 39.1346C39.669 39.369 39.987 39.5007 40.3185 39.5007H40.4997V37.0007H40.3185C39.6555 37.0007 39.0196 36.7373 38.5507 36.2684C38.0819 35.7996 37.8185 35.1637 37.8185 34.5007C37.8185 33.8376 38.0819 33.2018 38.5507 32.7329C39.0196 32.2641 39.6555 32.0007 40.3185 32.0007H40.4997V30.4819H41.7497V32.0007H41.931C42.594 32.0007 43.2299 32.2641 43.6988 32.7329C44.1676 33.2018 44.431 33.8376 44.431 34.5007H43.181C43.181 34.1692 43.0493 33.8512 42.8149 33.6168C42.5805 33.3824 42.2625 33.2507 41.931 33.2507H41.7497V35.7507H41.931Z" fill="white"/>
</svg>
